# xmcd
#
# Track frame offsets:
#	150
#	20154
#	39941
#	60173
#	82643
#	100346
#	119963
#	140342
#	156702
#	173007
#	188689
#	210099
#
# Disc length: 3064 seconds
#
# Revision: 1
# Processed by: cddbd v1.5.2PL0 Copyright (c) Steve Scherf et al.
# Submitted via: audiograbber 1.83.01
#
DISCID=960bf60c
DTITLE=Patricia Kaas - Cafe Noir
DYEAR=1996
DGENRE=Chanson
TTITLE0=When The Night Rolls In
TTITLE1=Ain't No Sunshine
TTITLE2=Company
TTITLE3=Don't Let Me Be Lonely Tonight
TTITLE4=Sometimes It Snows In April
TTITLE5=You Don't Have To Say You Love Me
TTITLE6=I Wish You Love
TTITLE7=My Life
TTITLE8=If You Leave Me Now
TTITLE9=Black Coffee
TTITLE10=Ain't No Way
TTITLE11=I Want To Love You
EXTD=
EXTT0=
EXTT1=
EXTT2=
EXTT3=
EXTT4=
EXTT5=
EXTT6=
EXTT7=
EXTT8=
EXTT9=
EXTT10=
EXTT11=
PLAYORDER=
